<svg xmlns="http://www.w3.org/2000/svg" width="1200" height="820" viewBox="0 0 1200 820">
<rect width="1200" height="820" fill="white"/><text x="55" y="60" font-family="Arial" font-size="31" font-weight="700" fill="#1f2937">Frontend Web Application - Component Diagram</text><text x="55" y="95" font-family="Arial" font-size="18" fill="#64748b">Vue 3 · JavaScript · PrimeVue · Material Design</text>
<defs><marker id="a" markerWidth="10" markerHeight="10" refX="9" refY="3" orient="auto"><path d="M0,0 L0,6 L9,3 z" fill="#475569"/></marker></defs>
<rect x="50" y="135" width="1100" height="620" rx="18" fill="#f8fafc" stroke="#94a3b8" stroke-width="2"/>
<g font-family="Arial"><rect x="90" y="205" width="240" height="100" rx="10" fill="#eff6ff" stroke="#2563eb" stroke-width="2"/><text x="210" y="246" text-anchor="middle" font-size="19" font-weight="700">Vue Router</text><text x="210" y="275" text-anchor="middle" font-size="14">Routes · navigation guards</text>
<rect x="475" y="205" width="240" height="100" rx="10" fill="#f0fdf4" stroke="#16a34a" stroke-width="2"/><text x="595" y="246" text-anchor="middle" font-size="19" font-weight="700">Views / Pages</text><text x="595" y="275" text-anchor="middle" font-size="14">Parent &amp; Driver flows</text>
<rect x="860" y="205" width="240" height="100" rx="10" fill="#faf5ff" stroke="#9333ea" stroke-width="2"/><text x="980" y="246" text-anchor="middle" font-size="19" font-weight="700">PrimeVue Components</text><text x="980" y="275" text-anchor="middle" font-size="14">Buttons · Dialogs · Tables · Timeline</text>
<rect x="90" y="420" width="240" height="100" rx="10" fill="#ecfeff" stroke="#0891b2" stroke-width="2"/><text x="210" y="461" text-anchor="middle" font-size="19" font-weight="700">Session / Auth</text><text x="210" y="490" text-anchor="middle" font-size="14">Token state · role access</text>
<rect x="475" y="420" width="240" height="100" rx="10" fill="#fff7ed" stroke="#ea580c" stroke-width="2"/><text x="595" y="461" text-anchor="middle" font-size="19" font-weight="700">API Client / Services</text><text x="595" y="490" text-anchor="middle" font-size="14">HTTP · JSON</text>
<rect x="860" y="420" width="240" height="100" rx="10" fill="#fefce8" stroke="#ca8a04" stroke-width="2"/><text x="980" y="461" text-anchor="middle" font-size="19" font-weight="700">i18n Resources</text><text x="980" y="490" text-anchor="middle" font-size="14">en_US · es_419</text>
<rect x="475" y="625" width="240" height="90" rx="10" fill="#f0fdf4" stroke="#16a34a" stroke-width="2"/><text x="595" y="663" text-anchor="middle" font-size="19" font-weight="700">Rumbo RESTful API</text><text x="595" y="691" text-anchor="middle" font-size="14">ASP.NET Core</text></g>
<line x1="330" y1="255" x2="470" y2="255" stroke="#475569" stroke-width="3" marker-end="url(#a)"/><line x1="715" y1="255" x2="855" y2="255" stroke="#475569" stroke-width="3" marker-end="url(#a)"/><line x1="595" y1="305" x2="595" y2="415" stroke="#475569" stroke-width="3" marker-end="url(#a)"/><line x1="595" y1="520" x2="595" y2="620" stroke="#475569" stroke-width="3" marker-end="url(#a)"/>
</svg>